<svg id="Capa_1" enable-background="new 0 0 512 512" height="512" viewBox="0 0 512 512" width="512" xmlns="http://www.w3.org/2000/svg"><g><path d="m11.292 75.813c-2.094 0-3.792 1.698-3.792 3.792v262.791c0 2.094 1.698 3.792 3.792 3.792h211.846v-270.375z" fill="#95d6a4"/><path d="m500.708 75.813h-211.846v270.375h211.846c2.094 0 3.792-1.698 3.792-3.792v-262.792c0-2.094-1.698-3.791-3.792-3.791z" fill="#95d6a4"/><path d="m223.138 105.845h-141.287c-1.096 0-2.016.853-2.066 1.949-.989 21.81-18.495 39.315-40.305 40.304-1.095.05-1.948.969-1.948 2.065v121.674c0 1.096.853 2.016 1.948 2.065 21.81.989 39.316 18.494 40.305 40.304.05 1.095.97 1.949 2.066 1.949h141.287z" fill="#ccf49f"/><path d="m472.519 148.097c-21.81-.989-39.316-18.494-40.305-40.304-.05-1.095-.97-1.949-2.066-1.949h-141.286v210.31h141.287c1.096 0 2.016-.853 2.066-1.949.989-21.81 18.495-39.315 40.305-40.304 1.095-.05 1.948-.969 1.948-2.065v-121.673c-.001-1.096-.854-2.016-1.949-2.066z" fill="#ccf49f"/><path d="m74.811 296.155c2.913 5.417 4.679 11.543 4.974 18.051.05 1.095.97 1.949 2.066 1.949h141.287v-20z" fill="#b3e59f"/><path d="m472.519 148.097c-21.81-.989-39.316-18.494-40.305-40.304-.05-1.095-.97-1.949-2.066-1.949h-32.96c6.847 12.735 20.029 21.559 35.33 22.252 1.095.05 1.948.969 1.948 2.065v94.101c0 14.641-8.148 27.86-20.875 35.097-6.633 3.772-12.147 9.285-15.919 15.918-7.237 12.728-20.456 20.876-35.097 20.876h-73.714v20h141.287c1.096 0 2.016-.853 2.066-1.949.989-21.81 18.495-39.315 40.305-40.304 1.095-.05 1.948-.969 1.948-2.065v-121.672c0-1.096-.853-2.016-1.948-2.066z" fill="#b3e59f"/><path d="m126.114 223.943h-41.652c-4.25 0-7.694-3.445-7.694-7.694v-10.497c0-4.25 3.445-7.694 7.694-7.694h41.652c4.25 0 7.694 3.445 7.694 7.694v10.497c.001 4.249-3.444 7.694-7.694 7.694z" fill="#95d6a4"/><path d="m385.886 223.943h41.652c4.25 0 7.694-3.445 7.694-7.694v-10.497c0-4.25-3.445-7.694-7.694-7.694h-41.652c-4.25 0-7.694 3.445-7.694 7.694v10.497c-.001 4.249 3.444 7.694 7.694 7.694z" fill="#95d6a4"/><path d="m288.862 346.187h-65.724v-276.35c0-1.333 1.08-2.413 2.413-2.413h60.897c1.333 0 2.413 1.08 2.413 2.413v276.35z" fill="#f4d8bc"/><path d="m223.138 137.905c-27.863 12.546-47.261 40.555-47.261 73.095s19.398 60.549 47.261 73.095z" fill="#95d6a4"/><path d="m288.862 137.905v146.19c27.863-12.546 47.261-40.555 47.261-73.095s-19.398-60.549-47.261-73.095z" fill="#95d6a4"/><path d="m288.862 346.187h-65.724v95.976c0 1.333 1.08 2.413 2.413 2.413h60.897c1.333 0 2.413-1.08 2.413-2.413v-95.976z" fill="#fff0af"/><path d="m223.138 346.187h-211.846c-2.094 0-3.792-1.698-3.792-3.792v90c0 2.094 1.698 3.792 3.792 3.792h211.846z" fill="#78c2a4"/><path d="m500.708 346.187h-211.846v90h211.846c2.094 0 3.792-1.698 3.792-3.792v-90c0 2.095-1.698 3.792-3.792 3.792z" fill="#78c2a4"/><path d="m69.268 205.751v10.497c0 8.378 6.816 15.194 15.194 15.194h41.652c8.378 0 15.194-6.816 15.194-15.194v-10.497c0-8.378-6.816-15.194-15.194-15.194h-41.652c-8.378 0-15.194 6.816-15.194 15.194zm57.041 0v10.497c0 .107-.087.194-.194.194h-41.653c-.107 0-.194-.087-.194-.194v-10.497c0-.107.087-.194.194-.194h41.652c.108 0 .195.088.195.194z"/><path d="m442.732 216.249v-10.497c0-8.378-6.816-15.194-15.194-15.194h-41.652c-8.378 0-15.194 6.816-15.194 15.194v10.497c0 8.378 6.816 15.194 15.194 15.194h41.652c8.378 0 15.194-6.816 15.194-15.194zm-57.041 0v-10.497c0-.107.087-.194.194-.194h41.652c.107 0 .194.087.194.194v10.497c0 .107-.087.194-.194.194h-41.652c-.107 0-.194-.088-.194-.194z"/><path d="m500.708 68.313h-204.463c-.736-4.745-4.848-8.389-9.797-8.389h-60.896c-4.948 0-9.061 3.644-9.797 8.389h-204.463c-6.227 0-11.292 5.065-11.292 11.291v352.791c0 6.227 5.065 11.292 11.292 11.292h204.463c.736 4.745 4.848 8.389 9.797 8.389h60.896c4.948 0 9.061-3.644 9.797-8.389h204.463c6.227 0 11.292-5.065 11.292-11.292v-352.791c0-6.226-5.065-11.291-11.292-11.291zm-204.346 82.303c19.911 13.339 32.261 35.935 32.261 60.384s-12.35 47.045-32.261 60.384zm0 138.175c28.866-14.999 47.261-45.014 47.261-77.791s-18.395-62.792-47.261-77.791v-19.864h128.863c3.223 21.652 20.087 38.519 41.741 41.741v111.828c-21.652 3.222-38.519 20.09-41.741 41.741h-128.863zm-15-213.867v263.764h-50.725c0-17.921 0-69.31 0-92.508 0-4.142-3.357-7.5-7.5-7.5s-7.5 3.358-7.5 7.5v25.204c-19.911-13.339-32.261-35.935-32.261-60.384s12.35-47.045 32.261-60.384v60.564c0 4.142 3.357 7.5 7.5 7.5s7.5-3.358 7.5-7.5c0-2.721 0-117.776 0-136.256zm-266.362 8.389h200.638v15.032h-62.618c-4.143 0-7.5 3.358-7.5 7.5s3.357 7.5 7.5 7.5h62.618v19.864c-28.866 14.999-47.261 45.014-47.261 77.791s18.395 62.792 47.261 77.791v19.864h-128.864c-3.223-21.652-20.087-38.518-41.741-41.741v-111.828c21.652-3.222 38.519-20.09 41.741-41.741h31.245c4.143 0 7.5-3.358 7.5-7.5s-3.357-7.5-7.5-7.5h-36.167c-5.128 0-9.326 4-9.559 9.109-.819 18.08-15.071 32.332-33.15 33.151-5.108.23-9.109 4.428-9.109 9.557v121.674c0 5.129 4.001 9.328 9.107 9.558 18.081.82 32.333 15.072 33.152 33.152.232 5.107 4.431 9.108 9.559 9.108h133.786v15.033h-200.638zm0 270.375h200.638v15.002h-183.138c-4.143 0-7.5 3.358-7.5 7.5s3.357 7.5 7.5 7.5h183.138v15h-183.138c-4.143 0-7.5 3.358-7.5 7.5s3.357 7.5 7.5 7.5h183.138v14.998h-200.638zm215.638 83.388c0-.848 0-81.238 0-83.389h50.725v83.389zm65.724-8.388v-14.998h183.138c4.143 0 7.5-3.358 7.5-7.5s-3.357-7.5-7.5-7.5h-183.138v-15h183.138c4.143 0 7.5-3.358 7.5-7.5s-3.357-7.5-7.5-7.5h-183.138v-15.002h73.579c4.143 0 7.5-3.358 7.5-7.5s-3.357-7.5-7.5-7.5h-73.579v-15.033h133.786c5.128 0 9.326-4.001 9.559-9.109.819-18.079 15.071-32.331 33.15-33.151 5.108-.23 9.109-4.428 9.109-9.558v-121.674c0-5.129-4.001-9.327-9.107-9.557-18.081-.82-32.333-15.072-33.152-33.153-.232-5.107-4.431-9.108-9.559-9.108h-133.786v-15.032h200.638v255.375h-92.059c-4.143 0-7.5 3.358-7.5 7.5s3.357 7.5 7.5 7.5h92.059v75z"/></g></svg>